# xmcd
#
# Track frame offsets:
#	150
#	12318
#	26851
#	41632
#	58072
#	76235
#	97474
#	113445
#	128266
#	144629
#	163651
#	181995
#	198667
#
# Disc length: 2839 seconds
#
# Revision: 0
# Processed by: cddbd v1.5.2PL0 Copyright (c) Steve Scherf et al.
# Submitted via: EasyCDDAExtractor 4.6.9.1
#
DISCID=b00b150d
DTITLE=Sylvain Lelièvre - Au milieu de nous deux
DYEAR=2011
DGENRE=Compilation
TTITLE0=Qui saura jamais 
TTITLE1=La vitre vide 
TTITLE2=Le vent du fleuve  
TTITLE3=Peine perdue 
TTITLE4=Chanson du bord de l'eau 
TTITLE5=Je descends à la mer 
TTITLE6=Les amours anciennes 
TTITLE7=Clandestins 
TTITLE8=J'ai perdu trop de temps 
TTITLE9=La lanterne magique 
TTITLE10=Au milieu de nous deux 
TTITLE11=Notre vie 
TTITLE12=Lettre sans adresse 
EXTD=
EXTT0=
EXTT1=
EXTT2=
EXTT3=
EXTT4=
EXTT5=
EXTT6=
EXTT7=
EXTT8=
EXTT9=
EXTT10=
EXTT11=
EXTT12=
PLAYORDER=
